<?xml version="1.0" standalone="no"?>
<!DOCTYPE svg PUBLIC "-//W3C//DTD SVG 20010904//EN"
 "http://www.w3.org/TR/2001/REC-SVG-20010904/DTD/svg10.dtd">
<svg version="1.0" xmlns="http://www.w3.org/2000/svg"
 width="538.000000pt" height="538.000000pt" viewBox="0 0 538.000000 538.000000"
 preserveAspectRatio="xMidYMid meet">

<g transform="translate(0.000000,538.000000) scale(0.100000,-0.100000)"
fill="#000000" stroke="none">
<path d="M905 4838 c-3 -7 -4 -238 -3 -513 l3 -500 468 -3 467 -2 -1 -958 0
-957 168 -127 c92 -71 169 -128 170 -128 2 0 3 569 3 1265 l0 1265 -462 2
-463 3 0 155 0 155 610 0 610 0 3 -1698 c2 -934 1 -1705 -2 -1714 -6 -14 -9
-14 -29 4 -12 11 -105 80 -207 154 -398 288 -585 440 -695 566 -221 252 -305
471 -305 793 l0 109 108 3 107 3 0 165 0 165 -275 0 -275 0 0 -365 c1 -341 3
-372 24 -470 74 -345 275 -626 677 -946 55 -44 231 -174 390 -289 159 -115
405 -293 546 -397 141 -103 262 -188 268 -188 7 0 9 683 8 2228 l-3 2227 -953
3 c-757 2 -954 0 -957 -10z"/>
<path d="M3030 2614 c0 -1853 2 -2235 13 -2231 17 6 774 548 987 705 379 281
560 450 705 657 67 96 98 153 151 278 l33 77 -455 0 -454 0 2 172 3 173 320 0
320 0 3 178 2 177 -495 0 -495 0 0 -626 0 -626 33 24 c17 13 78 57 133 96
l101 72 162 0 c88 0 161 -3 161 -6 0 -7 -68 -69 -167 -152 -40 -33 -189 -145
-330 -248 -142 -103 -287 -209 -323 -235 l-65 -48 -3 1712 c-1 942 0 1718 3
1725 3 10 131 12 612 10 l608 -3 0 -155 0 -155 -462 -3 -463 -2 0 -525 0 -525
493 2 492 3 3 173 2 172 -325 0 -325 0 0 170 0 170 468 2 467 3 0 510 0 510
-957 3 -958 2 0 -2236z"/>
</g>
</svg>
